<?xml version="1.0" encoding="UTF-8" standalone="no"?>
<!DOCTYPE svg PUBLIC "-//W3C//DTD SVG 1.1//EN"
 "http://www.w3.org/Graphics/SVG/1.1/DTD/svg11.dtd">
<!-- Generated by graphviz version 2.43.0 (0)
 -->
<!-- Title: Tree Pages: 1 -->
<svg width="712pt" height="671pt"
 viewBox="0.00 0.00 712.00 671.00" xmlns="http://www.w3.org/2000/svg" xmlns:xlink="http://www.w3.org/1999/xlink">
<g id="graph0" class="graph" transform="scale(1 1) rotate(0) translate(4 667)">
<title>Tree</title>
<polygon fill="white" stroke="transparent" points="-4,4 -4,-667 708,-667 708,4 -4,4"/>
<!-- 0 -->
<g id="node1" class="node">
<title>0</title>
<path fill="#bddef6" stroke="black" d="M302.5,-663C302.5,-663 204.5,-663 204.5,-663 198.5,-663 192.5,-657 192.5,-651 192.5,-651 192.5,-592 192.5,-592 192.5,-586 198.5,-580 204.5,-580 204.5,-580 302.5,-580 302.5,-580 308.5,-580 314.5,-586 314.5,-592 314.5,-592 314.5,-651 314.5,-651 314.5,-657 308.5,-663 302.5,-663"/>
<text text-anchor="start" x="214" y="-647.8" font-family="Helvetica,sans-Serif" font-size="14.00">age ≤ 30.5</text>
<text text-anchor="start" x="214" y="-632.8" font-family="Helvetica,sans-Serif" font-size="14.00">gini = 0.48</text>
<text text-anchor="start" x="205" y="-617.8" font-family="Helvetica,sans-Serif" font-size="14.00">samples = 20</text>
<text text-anchor="start" x="200.5" y="-602.8" font-family="Helvetica,sans-Serif" font-size="14.00">value = [8, 12]</text>
<text text-anchor="start" x="214.5" y="-587.8" font-family="Helvetica,sans-Serif" font-size="14.00">class = NO</text>
</g>
<!-- 1 -->
<g id="node2" class="node">
<title>1</title>
<path fill="#eeab7b" stroke="black" d="M230,-544C230,-544 141,-544 141,-544 135,-544 129,-538 129,-532 129,-532 129,-473 129,-473 129,-467 135,-461 141,-461 141,-461 230,-461 230,-461 236,-461 242,-467 242,-473 242,-473 242,-532 242,-532 242,-538 236,-544 230,-544"/>
<text text-anchor="start" x="137" y="-528.8" font-family="Helvetica,sans-Serif" font-size="14.00">student ≤ 0.5</text>
<text text-anchor="start" x="141.5" y="-513.8" font-family="Helvetica,sans-Serif" font-size="14.00">gini = 0.375</text>
<text text-anchor="start" x="141.5" y="-498.8" font-family="Helvetica,sans-Serif" font-size="14.00">samples = 8</text>
<text text-anchor="start" x="137" y="-483.8" font-family="Helvetica,sans-Serif" font-size="14.00">value = [6, 2]</text>
<text text-anchor="start" x="144.5" y="-468.8" font-family="Helvetica,sans-Serif" font-size="14.00">class = YES</text>
</g>
<!-- 0&#45;&gt;1 -->
<g id="edge1" class="edge">
<title>0&#45;&gt;1</title>
<path fill="none" stroke="black" d="M229.91,-579.91C224.84,-571.2 219.44,-561.9 214.21,-552.89"/>
<polygon fill="black" stroke="black" points="217.1,-550.91 209.05,-544.02 211.05,-554.43 217.1,-550.91"/>
<text text-anchor="middle" x="202.65" y="-564.49" font-family="Helvetica,sans-Serif" font-size="14.00">True</text>
</g>
<!-- 4 -->
<g id="node5" class="node">
<title>4</title>
<path fill="#61b1ea" stroke="black" d="M370.5,-544C370.5,-544 272.5,-544 272.5,-544 266.5,-544 260.5,-538 260.5,-532 260.5,-532 260.5,-473 260.5,-473 260.5,-467 266.5,-461 272.5,-461 272.5,-461 370.5,-461 370.5,-461 376.5,-461 382.5,-467 382.5,-473 382.5,-473 382.5,-532 382.5,-532 382.5,-538 376.5,-544 370.5,-544"/>
<text text-anchor="start" x="282" y="-528.8" font-family="Helvetica,sans-Serif" font-size="14.00">age ≤ 36.0</text>
<text text-anchor="start" x="277.5" y="-513.8" font-family="Helvetica,sans-Serif" font-size="14.00">gini = 0.278</text>
<text text-anchor="start" x="273" y="-498.8" font-family="Helvetica,sans-Serif" font-size="14.00">samples = 12</text>
<text text-anchor="start" x="268.5" y="-483.8" font-family="Helvetica,sans-Serif" font-size="14.00">value = [2, 10]</text>
<text text-anchor="start" x="282.5" y="-468.8" font-family="Helvetica,sans-Serif" font-size="14.00">class = NO</text>
</g>
<!-- 0&#45;&gt;4 -->
<g id="edge4" class="edge">
<title>0&#45;&gt;4</title>
<path fill="none" stroke="black" d="M277.09,-579.91C282.16,-571.2 287.56,-561.9 292.79,-552.89"/>
<polygon fill="black" stroke="black" points="295.95,-554.43 297.95,-544.02 289.9,-550.91 295.95,-554.43"/>
<text text-anchor="middle" x="304.35" y="-564.49" font-family="Helvetica,sans-Serif" font-size="14.00">False</text>
</g>
<!-- 2 -->
<g id="node3" class="node">
<title>2</title>
<path fill="#e58139" stroke="black" d="M101,-417.5C101,-417.5 12,-417.5 12,-417.5 6,-417.5 0,-411.5 0,-405.5 0,-405.5 0,-361.5 0,-361.5 0,-355.5 6,-349.5 12,-349.5 12,-349.5 101,-349.5 101,-349.5 107,-349.5 113,-355.5 113,-361.5 113,-361.5 113,-405.5 113,-405.5 113,-411.5 107,-417.5 101,-417.5"/>
<text text-anchor="start" x="21.5" y="-402.3" font-family="Helvetica,sans-Serif" font-size="14.00">gini = 0.0</text>
<text text-anchor="start" x="12.5" y="-387.3" font-family="Helvetica,sans-Serif" font-size="14.00">samples = 6</text>
<text text-anchor="start" x="8" y="-372.3" font-family="Helvetica,sans-Serif" font-size="14.00">value = [6, 0]</text>
<text text-anchor="start" x="15.5" y="-357.3" font-family="Helvetica,sans-Serif" font-size="14.00">class = YES</text>
</g>
<!-- 1&#45;&gt;2 -->
<g id="edge2" class="edge">
<title>1&#45;&gt;2</title>
<path fill="none" stroke="black" d="M140.74,-460.91C127.73,-449.1 113.52,-436.22 100.55,-424.45"/>
<polygon fill="black" stroke="black" points="102.83,-421.79 93.07,-417.67 98.12,-426.98 102.83,-421.79"/>
</g>
<!-- 3 -->
<g id="node4" class="node">
<title>3</title>
<path fill="#399de5" stroke="black" d="M232,-417.5C232,-417.5 143,-417.5 143,-417.5 137,-417.5 131,-411.5 131,-405.5 131,-405.5 131,-361.5 131,-361.5 131,-355.5 137,-349.5 143,-349.5 143,-349.5 232,-349.5 232,-349.5 238,-349.5 244,-355.5 244,-361.5 244,-361.5 244,-405.5 244,-405.5 244,-411.5 238,-417.5 232,-417.5"/>
<text text-anchor="start" x="152.5" y="-402.3" font-family="Helvetica,sans-Serif" font-size="14.00">gini = 0.0</text>
<text text-anchor="start" x="143.5" y="-387.3" font-family="Helvetica,sans-Serif" font-size="14.00">samples = 2</text>
<text text-anchor="start" x="139" y="-372.3" font-family="Helvetica,sans-Serif" font-size="14.00">value = [0, 2]</text>
<text text-anchor="start" x="148.5" y="-357.3" font-family="Helvetica,sans-Serif" font-size="14.00">class = NO</text>
</g>
<!-- 1&#45;&gt;3 -->
<g id="edge3" class="edge">
<title>1&#45;&gt;3</title>
<path fill="none" stroke="black" d="M186.19,-460.91C186.38,-450.2 186.57,-438.62 186.76,-427.78"/>
<polygon fill="black" stroke="black" points="190.26,-427.73 186.93,-417.67 183.26,-427.61 190.26,-427.73"/>
</g>
<!-- 5 -->
<g id="node6" class="node">
<title>5</title>
<path fill="#399de5" stroke="black" d="M365,-417.5C365,-417.5 276,-417.5 276,-417.5 270,-417.5 264,-411.5 264,-405.5 264,-405.5 264,-361.5 264,-361.5 264,-355.5 270,-349.5 276,-349.5 276,-349.5 365,-349.5 365,-349.5 371,-349.5 377,-355.5 377,-361.5 377,-361.5 377,-405.5 377,-405.5 377,-411.5 371,-417.5 365,-417.5"/>
<text text-anchor="start" x="285.5" y="-402.3" font-family="Helvetica,sans-Serif" font-size="14.00">gini = 0.0</text>
<text text-anchor="start" x="276.5" y="-387.3" font-family="Helvetica,sans-Serif" font-size="14.00">samples = 6</text>
<text text-anchor="start" x="272" y="-372.3" font-family="Helvetica,sans-Serif" font-size="14.00">value = [0, 6]</text>
<text text-anchor="start" x="281.5" y="-357.3" font-family="Helvetica,sans-Serif" font-size="14.00">class = NO</text>
</g>
<!-- 4&#45;&gt;5 -->
<g id="edge5" class="edge">
<title>4&#45;&gt;5</title>
<path fill="none" stroke="black" d="M321.15,-460.91C321.06,-450.2 320.96,-438.62 320.87,-427.78"/>
<polygon fill="black" stroke="black" points="324.37,-427.64 320.78,-417.67 317.37,-427.7 324.37,-427.64"/>
</g>
<!-- 6 -->
<g id="node7" class="node">
<title>6</title>
<path fill="#9ccef2" stroke="black" d="M496,-425C496,-425 407,-425 407,-425 401,-425 395,-419 395,-413 395,-413 395,-354 395,-354 395,-348 401,-342 407,-342 407,-342 496,-342 496,-342 502,-342 508,-348 508,-354 508,-354 508,-413 508,-413 508,-419 502,-425 496,-425"/>
<text text-anchor="start" x="410" y="-409.8" font-family="Helvetica,sans-Serif" font-size="14.00">credit ≤ 1.5</text>
<text text-anchor="start" x="407.5" y="-394.8" font-family="Helvetica,sans-Serif" font-size="14.00">gini = 0.444</text>
<text text-anchor="start" x="407.5" y="-379.8" font-family="Helvetica,sans-Serif" font-size="14.00">samples = 6</text>
<text text-anchor="start" x="403" y="-364.8" font-family="Helvetica,sans-Serif" font-size="14.00">value = [2, 4]</text>
<text text-anchor="start" x="412.5" y="-349.8" font-family="Helvetica,sans-Serif" font-size="14.00">class = NO</text>
</g>
<!-- 4&#45;&gt;6 -->
<g id="edge6" class="edge">
<title>4&#45;&gt;6</title>
<path fill="none" stroke="black" d="M366.6,-460.91C376.99,-451.56 388.12,-441.54 398.8,-431.93"/>
<polygon fill="black" stroke="black" points="401.39,-434.31 406.48,-425.02 396.7,-429.11 401.39,-434.31"/>
</g>
<!-- 7 -->
<g id="node8" class="node">
<title>7</title>
<path fill="#399de5" stroke="black" d="M431,-298.5C431,-298.5 342,-298.5 342,-298.5 336,-298.5 330,-292.5 330,-286.5 330,-286.5 330,-242.5 330,-242.5 330,-236.5 336,-230.5 342,-230.5 342,-230.5 431,-230.5 431,-230.5 437,-230.5 443,-236.5 443,-242.5 443,-242.5 443,-286.5 443,-286.5 443,-292.5 437,-298.5 431,-298.5"/>
<text text-anchor="start" x="351.5" y="-283.3" font-family="Helvetica,sans-Serif" font-size="14.00">gini = 0.0</text>
<text text-anchor="start" x="342.5" y="-268.3" font-family="Helvetica,sans-Serif" font-size="14.00">samples = 3</text>
<text text-anchor="start" x="338" y="-253.3" font-family="Helvetica,sans-Serif" font-size="14.00">value = [0, 3]</text>
<text text-anchor="start" x="347.5" y="-238.3" font-family="Helvetica,sans-Serif" font-size="14.00">class = NO</text>
</g>
<!-- 6&#45;&gt;7 -->
<g id="edge7" class="edge">
<title>6&#45;&gt;7</title>
<path fill="none" stroke="black" d="M428.95,-341.91C422.76,-330.76 416.03,-318.66 409.8,-307.44"/>
<polygon fill="black" stroke="black" points="412.84,-305.71 404.93,-298.67 406.72,-309.11 412.84,-305.71"/>
</g>
<!-- 8 -->
<g id="node9" class="node">
<title>8</title>
<path fill="#f2c09c" stroke="black" d="M562,-306C562,-306 473,-306 473,-306 467,-306 461,-300 461,-294 461,-294 461,-235 461,-235 461,-229 467,-223 473,-223 473,-223 562,-223 562,-223 568,-223 574,-229 574,-235 574,-235 574,-294 574,-294 574,-300 568,-306 562,-306"/>
<text text-anchor="start" x="469" y="-290.8" font-family="Helvetica,sans-Serif" font-size="14.00">student ≤ 0.5</text>
<text text-anchor="start" x="473.5" y="-275.8" font-family="Helvetica,sans-Serif" font-size="14.00">gini = 0.444</text>
<text text-anchor="start" x="473.5" y="-260.8" font-family="Helvetica,sans-Serif" font-size="14.00">samples = 3</text>
<text text-anchor="start" x="469" y="-245.8" font-family="Helvetica,sans-Serif" font-size="14.00">value = [2, 1]</text>
<text text-anchor="start" x="476.5" y="-230.8" font-family="Helvetica,sans-Serif" font-size="14.00">class = YES</text>
</g>
<!-- 6&#45;&gt;8 -->
<g id="edge8" class="edge">
<title>6&#45;&gt;8</title>
<path fill="none" stroke="black" d="M474.4,-341.91C479.31,-333.2 484.56,-323.9 489.64,-314.89"/>
<polygon fill="black" stroke="black" points="492.78,-316.45 494.64,-306.02 486.68,-313.01 492.78,-316.45"/>
</g>
<!-- 9 -->
<g id="node10" class="node">
<title>9</title>
<path fill="#e58139" stroke="black" d="M496,-179.5C496,-179.5 407,-179.5 407,-179.5 401,-179.5 395,-173.5 395,-167.5 395,-167.5 395,-123.5 395,-123.5 395,-117.5 401,-111.5 407,-111.5 407,-111.5 496,-111.5 496,-111.5 502,-111.5 508,-117.5 508,-123.5 508,-123.5 508,-167.5 508,-167.5 508,-173.5 502,-179.5 496,-179.5"/>
<text text-anchor="start" x="416.5" y="-164.3" font-family="Helvetica,sans-Serif" font-size="14.00">gini = 0.0</text>
<text text-anchor="start" x="407.5" y="-149.3" font-family="Helvetica,sans-Serif" font-size="14.00">samples = 1</text>
<text text-anchor="start" x="403" y="-134.3" font-family="Helvetica,sans-Serif" font-size="14.00">value = [1, 0]</text>
<text text-anchor="start" x="410.5" y="-119.3" font-family="Helvetica,sans-Serif" font-size="14.00">class = YES</text>
</g>
<!-- 8&#45;&gt;9 -->
<g id="edge9" class="edge">
<title>8&#45;&gt;9</title>
<path fill="none" stroke="black" d="M494.6,-222.91C488.31,-211.76 481.49,-199.66 475.16,-188.44"/>
<polygon fill="black" stroke="black" points="478.17,-186.66 470.21,-179.67 472.07,-190.1 478.17,-186.66"/>
</g>
<!-- 10 -->
<g id="node11" class="node">
<title>10</title>
<path fill="#ffffff" stroke="black" d="M627,-187C627,-187 538,-187 538,-187 532,-187 526,-181 526,-175 526,-175 526,-116 526,-116 526,-110 532,-104 538,-104 538,-104 627,-104 627,-104 633,-104 639,-110 639,-116 639,-116 639,-175 639,-175 639,-181 633,-187 627,-187"/>
<text text-anchor="start" x="535.5" y="-171.8" font-family="Helvetica,sans-Serif" font-size="14.00">income ≤ 1.5</text>
<text text-anchor="start" x="547.5" y="-156.8" font-family="Helvetica,sans-Serif" font-size="14.00">gini = 0.5</text>
<text text-anchor="start" x="538.5" y="-141.8" font-family="Helvetica,sans-Serif" font-size="14.00">samples = 2</text>
<text text-anchor="start" x="534" y="-126.8" font-family="Helvetica,sans-Serif" font-size="14.00">value = [1, 1]</text>
<text text-anchor="start" x="541.5" y="-111.8" font-family="Helvetica,sans-Serif" font-size="14.00">class = YES</text>
</g>
<!-- 8&#45;&gt;10 -->
<g id="edge10" class="edge">
<title>8&#45;&gt;10</title>
<path fill="none" stroke="black" d="M540.05,-222.91C544.89,-214.2 550.06,-204.9 555.06,-195.89"/>
<polygon fill="black" stroke="black" points="558.19,-197.46 559.99,-187.02 552.07,-194.06 558.19,-197.46"/>
</g>
<!-- 11 -->
<g id="node12" class="node">
<title>11</title>
<path fill="#e58139" stroke="black" d="M561,-68C561,-68 472,-68 472,-68 466,-68 460,-62 460,-56 460,-56 460,-12 460,-12 460,-6 466,0 472,0 472,0 561,0 561,0 567,0 573,-6 573,-12 573,-12 573,-56 573,-56 573,-62 567,-68 561,-68"/>
<text text-anchor="start" x="481.5" y="-52.8" font-family="Helvetica,sans-Serif" font-size="14.00">gini = 0.0</text>
<text text-anchor="start" x="472.5" y="-37.8" font-family="Helvetica,sans-Serif" font-size="14.00">samples = 1</text>
<text text-anchor="start" x="468" y="-22.8" font-family="Helvetica,sans-Serif" font-size="14.00">value = [1, 0]</text>
<text text-anchor="start" x="475.5" y="-7.8" font-family="Helvetica,sans-Serif" font-size="14.00">class = YES</text>
</g>
<!-- 10&#45;&gt;11 -->
<g id="edge11" class="edge">
<title>10&#45;&gt;11</title>
<path fill="none" stroke="black" d="M557.92,-103.73C552.65,-94.97 547.06,-85.7 541.76,-76.91"/>
<polygon fill="black" stroke="black" points="544.73,-75.06 536.57,-68.3 538.74,-78.67 544.73,-75.06"/>
</g>
<!-- 12 -->
<g id="node13" class="node">
<title>12</title>
<path fill="#399de5" stroke="black" d="M692,-68C692,-68 603,-68 603,-68 597,-68 591,-62 591,-56 591,-56 591,-12 591,-12 591,-6 597,0 603,0 603,0 692,0 692,0 698,0 704,-6 704,-12 704,-12 704,-56 704,-56 704,-62 698,-68 692,-68"/>
<text text-anchor="start" x="612.5" y="-52.8" font-family="Helvetica,sans-Serif" font-size="14.00">gini = 0.0</text>
<text text-anchor="start" x="603.5" y="-37.8" font-family="Helvetica,sans-Serif" font-size="14.00">samples = 1</text>
<text text-anchor="start" x="599" y="-22.8" font-family="Helvetica,sans-Serif" font-size="14.00">value = [0, 1]</text>
<text text-anchor="start" x="608.5" y="-7.8" font-family="Helvetica,sans-Serif" font-size="14.00">class = NO</text>
</g>
<!-- 10&#45;&gt;12 -->
<g id="edge12" class="edge">
<title>10&#45;&gt;12</title>
<path fill="none" stroke="black" d="M606.7,-103.73C611.9,-94.97 617.4,-85.7 622.62,-76.91"/>
<polygon fill="black" stroke="black" points="625.64,-78.69 627.73,-68.3 619.62,-75.11 625.64,-78.69"/>
</g>
</g>
</svg>
