<?xml version="1.0" encoding="UTF-8" standalone="no"?>
<!DOCTYPE svg PUBLIC "-//W3C//DTD SVG 1.1//EN"
 "http://www.w3.org/Graphics/SVG/1.1/DTD/svg11.dtd">
<!-- Generated by graphviz version 2.43.0 (0)
 -->
<!-- Title: Tree Pages: 1 -->
<svg width="995pt" height="671pt"
 viewBox="0.00 0.00 995.00 671.00" xmlns="http://www.w3.org/2000/svg" xmlns:xlink="http://www.w3.org/1999/xlink">
<g id="graph0" class="graph" transform="scale(1 1) rotate(0) translate(4 667)">
<title>Tree</title>
<polygon fill="white" stroke="transparent" points="-4,4 -4,-667 991,-667 991,4 -4,4"/>
<!-- 0 -->
<g id="node1" class="node">
<title>0</title>
<path fill="#ffffff" stroke="black" d="M588.5,-663C588.5,-663 439.5,-663 439.5,-663 433.5,-663 427.5,-657 427.5,-651 427.5,-651 427.5,-592 427.5,-592 427.5,-586 433.5,-580 439.5,-580 439.5,-580 588.5,-580 588.5,-580 594.5,-580 600.5,-586 600.5,-592 600.5,-592 600.5,-651 600.5,-651 600.5,-657 594.5,-663 588.5,-663"/>
<text text-anchor="start" x="435.5" y="-647.8" font-family="Helvetica,sans-Serif" font-size="14.00">petal width (cm) ≤ 0.8</text>
<text text-anchor="start" x="470" y="-632.8" font-family="Helvetica,sans-Serif" font-size="14.00">gini = 0.667</text>
<text text-anchor="start" x="461" y="-617.8" font-family="Helvetica,sans-Serif" font-size="14.00">samples = 150</text>
<text text-anchor="start" x="443" y="-602.8" font-family="Helvetica,sans-Serif" font-size="14.00">value = [50, 50, 50]</text>
<text text-anchor="start" x="463.5" y="-587.8" font-family="Helvetica,sans-Serif" font-size="14.00">class = setosa</text>
</g>
<!-- 1 -->
<g id="node2" class="node">
<title>1</title>
<path fill="#e58139" stroke="black" d="M483,-536.5C483,-536.5 367,-536.5 367,-536.5 361,-536.5 355,-530.5 355,-524.5 355,-524.5 355,-480.5 355,-480.5 355,-474.5 361,-468.5 367,-468.5 367,-468.5 483,-468.5 483,-468.5 489,-468.5 495,-474.5 495,-480.5 495,-480.5 495,-524.5 495,-524.5 495,-530.5 489,-536.5 483,-536.5"/>
<text text-anchor="start" x="390" y="-521.3" font-family="Helvetica,sans-Serif" font-size="14.00">gini = 0.0</text>
<text text-anchor="start" x="376.5" y="-506.3" font-family="Helvetica,sans-Serif" font-size="14.00">samples = 50</text>
<text text-anchor="start" x="363" y="-491.3" font-family="Helvetica,sans-Serif" font-size="14.00">value = [50, 0, 0]</text>
<text text-anchor="start" x="374.5" y="-476.3" font-family="Helvetica,sans-Serif" font-size="14.00">class = setosa</text>
</g>
<!-- 0&#45;&gt;1 -->
<g id="edge1" class="edge">
<title>0&#45;&gt;1</title>
<path fill="none" stroke="black" d="M483.12,-579.91C474.48,-568.54 465.07,-556.18 456.4,-544.77"/>
<polygon fill="black" stroke="black" points="459.07,-542.51 450.23,-536.67 453.5,-546.74 459.07,-542.51"/>
<text text-anchor="middle" x="446.86" y="-557.74" font-family="Helvetica,sans-Serif" font-size="14.00">True</text>
</g>
<!-- 2 -->
<g id="node3" class="node">
<title>2</title>
<path fill="#ffffff" stroke="black" d="M683,-544C683,-544 525,-544 525,-544 519,-544 513,-538 513,-532 513,-532 513,-473 513,-473 513,-467 519,-461 525,-461 525,-461 683,-461 683,-461 689,-461 695,-467 695,-473 695,-473 695,-532 695,-532 695,-538 689,-544 683,-544"/>
<text text-anchor="start" x="521" y="-528.8" font-family="Helvetica,sans-Serif" font-size="14.00">petal width (cm) ≤ 1.75</text>
<text text-anchor="start" x="569" y="-513.8" font-family="Helvetica,sans-Serif" font-size="14.00">gini = 0.5</text>
<text text-anchor="start" x="551" y="-498.8" font-family="Helvetica,sans-Serif" font-size="14.00">samples = 100</text>
<text text-anchor="start" x="537.5" y="-483.8" font-family="Helvetica,sans-Serif" font-size="14.00">value = [0, 50, 50]</text>
<text text-anchor="start" x="542" y="-468.8" font-family="Helvetica,sans-Serif" font-size="14.00">class = versicolor</text>
</g>
<!-- 0&#45;&gt;2 -->
<g id="edge2" class="edge">
<title>0&#45;&gt;2</title>
<path fill="none" stroke="black" d="M545.23,-579.91C552.14,-570.92 559.53,-561.32 566.65,-552.05"/>
<polygon fill="black" stroke="black" points="569.51,-554.08 572.83,-544.02 563.96,-549.81 569.51,-554.08"/>
<text text-anchor="middle" x="576.06" y="-565.11" font-family="Helvetica,sans-Serif" font-size="14.00">False</text>
</g>
<!-- 3 -->
<g id="node4" class="node">
<title>3</title>
<path fill="#4de88e" stroke="black" d="M557,-425C557,-425 393,-425 393,-425 387,-425 381,-419 381,-413 381,-413 381,-354 381,-354 381,-348 387,-342 393,-342 393,-342 557,-342 557,-342 563,-342 569,-348 569,-354 569,-354 569,-413 569,-413 569,-419 563,-425 557,-425"/>
<text text-anchor="start" x="389" y="-409.8" font-family="Helvetica,sans-Serif" font-size="14.00">petal length (cm) ≤ 4.95</text>
<text text-anchor="start" x="431" y="-394.8" font-family="Helvetica,sans-Serif" font-size="14.00">gini = 0.168</text>
<text text-anchor="start" x="426.5" y="-379.8" font-family="Helvetica,sans-Serif" font-size="14.00">samples = 54</text>
<text text-anchor="start" x="413" y="-364.8" font-family="Helvetica,sans-Serif" font-size="14.00">value = [0, 49, 5]</text>
<text text-anchor="start" x="413" y="-349.8" font-family="Helvetica,sans-Serif" font-size="14.00">class = versicolor</text>
</g>
<!-- 2&#45;&gt;3 -->
<g id="edge3" class="edge">
<title>2&#45;&gt;3</title>
<path fill="none" stroke="black" d="M559.24,-460.91C548.94,-451.56 537.89,-441.54 527.29,-431.93"/>
<polygon fill="black" stroke="black" points="529.44,-429.15 519.68,-425.02 524.73,-434.33 529.44,-429.15"/>
</g>
<!-- 12 -->
<g id="node13" class="node">
<title>12</title>
<path fill="#843de6" stroke="black" d="M815,-425C815,-425 651,-425 651,-425 645,-425 639,-419 639,-413 639,-413 639,-354 639,-354 639,-348 645,-342 651,-342 651,-342 815,-342 815,-342 821,-342 827,-348 827,-354 827,-354 827,-413 827,-413 827,-419 821,-425 815,-425"/>
<text text-anchor="start" x="647" y="-409.8" font-family="Helvetica,sans-Serif" font-size="14.00">petal length (cm) ≤ 4.85</text>
<text text-anchor="start" x="689" y="-394.8" font-family="Helvetica,sans-Serif" font-size="14.00">gini = 0.043</text>
<text text-anchor="start" x="684.5" y="-379.8" font-family="Helvetica,sans-Serif" font-size="14.00">samples = 46</text>
<text text-anchor="start" x="671" y="-364.8" font-family="Helvetica,sans-Serif" font-size="14.00">value = [0, 1, 45]</text>
<text text-anchor="start" x="675.5" y="-349.8" font-family="Helvetica,sans-Serif" font-size="14.00">class = virginica</text>
</g>
<!-- 2&#45;&gt;12 -->
<g id="edge12" class="edge">
<title>2&#45;&gt;12</title>
<path fill="none" stroke="black" d="M648.76,-460.91C659.06,-451.56 670.11,-441.54 680.71,-431.93"/>
<polygon fill="black" stroke="black" points="683.27,-434.33 688.32,-425.02 678.56,-429.15 683.27,-434.33"/>
</g>
<!-- 4 -->
<g id="node5" class="node">
<title>4</title>
<path fill="#3de684" stroke="black" d="M303,-306C303,-306 145,-306 145,-306 139,-306 133,-300 133,-294 133,-294 133,-235 133,-235 133,-229 139,-223 145,-223 145,-223 303,-223 303,-223 309,-223 315,-229 315,-235 315,-235 315,-294 315,-294 315,-300 309,-306 303,-306"/>
<text text-anchor="start" x="141" y="-290.8" font-family="Helvetica,sans-Serif" font-size="14.00">petal width (cm) ≤ 1.65</text>
<text text-anchor="start" x="180" y="-275.8" font-family="Helvetica,sans-Serif" font-size="14.00">gini = 0.041</text>
<text text-anchor="start" x="175.5" y="-260.8" font-family="Helvetica,sans-Serif" font-size="14.00">samples = 48</text>
<text text-anchor="start" x="162" y="-245.8" font-family="Helvetica,sans-Serif" font-size="14.00">value = [0, 47, 1]</text>
<text text-anchor="start" x="162" y="-230.8" font-family="Helvetica,sans-Serif" font-size="14.00">class = versicolor</text>
</g>
<!-- 3&#45;&gt;4 -->
<g id="edge4" class="edge">
<title>3&#45;&gt;4</title>
<path fill="none" stroke="black" d="M387.92,-341.91C366.01,-331.7 342.38,-320.68 320.07,-310.28"/>
<polygon fill="black" stroke="black" points="321.47,-307.07 310.93,-306.02 318.51,-313.42 321.47,-307.07"/>
</g>
<!-- 7 -->
<g id="node8" class="node">
<title>7</title>
<path fill="#c09cf2" stroke="black" d="M554,-306C554,-306 396,-306 396,-306 390,-306 384,-300 384,-294 384,-294 384,-235 384,-235 384,-229 390,-223 396,-223 396,-223 554,-223 554,-223 560,-223 566,-229 566,-235 566,-235 566,-294 566,-294 566,-300 560,-306 554,-306"/>
<text text-anchor="start" x="392" y="-290.8" font-family="Helvetica,sans-Serif" font-size="14.00">petal width (cm) ≤ 1.55</text>
<text text-anchor="start" x="431" y="-275.8" font-family="Helvetica,sans-Serif" font-size="14.00">gini = 0.444</text>
<text text-anchor="start" x="431" y="-260.8" font-family="Helvetica,sans-Serif" font-size="14.00">samples = 6</text>
<text text-anchor="start" x="417.5" y="-245.8" font-family="Helvetica,sans-Serif" font-size="14.00">value = [0, 2, 4]</text>
<text text-anchor="start" x="417.5" y="-230.8" font-family="Helvetica,sans-Serif" font-size="14.00">class = virginica</text>
</g>
<!-- 3&#45;&gt;7 -->
<g id="edge7" class="edge">
<title>3&#45;&gt;7</title>
<path fill="none" stroke="black" d="M475,-341.91C475,-333.65 475,-324.86 475,-316.3"/>
<polygon fill="black" stroke="black" points="478.5,-316.02 475,-306.02 471.5,-316.02 478.5,-316.02"/>
</g>
<!-- 5 -->
<g id="node6" class="node">
<title>5</title>
<path fill="#39e581" stroke="black" d="M128,-179.5C128,-179.5 12,-179.5 12,-179.5 6,-179.5 0,-173.5 0,-167.5 0,-167.5 0,-123.5 0,-123.5 0,-117.5 6,-111.5 12,-111.5 12,-111.5 128,-111.5 128,-111.5 134,-111.5 140,-117.5 140,-123.5 140,-123.5 140,-167.5 140,-167.5 140,-173.5 134,-179.5 128,-179.5"/>
<text text-anchor="start" x="35" y="-164.3" font-family="Helvetica,sans-Serif" font-size="14.00">gini = 0.0</text>
<text text-anchor="start" x="21.5" y="-149.3" font-family="Helvetica,sans-Serif" font-size="14.00">samples = 47</text>
<text text-anchor="start" x="8" y="-134.3" font-family="Helvetica,sans-Serif" font-size="14.00">value = [0, 47, 0]</text>
<text text-anchor="start" x="8" y="-119.3" font-family="Helvetica,sans-Serif" font-size="14.00">class = versicolor</text>
</g>
<!-- 4&#45;&gt;5 -->
<g id="edge5" class="edge">
<title>4&#45;&gt;5</title>
<path fill="none" stroke="black" d="M170.57,-222.91C154.74,-210.88 137.44,-197.73 121.72,-185.79"/>
<polygon fill="black" stroke="black" points="123.74,-182.93 113.66,-179.67 119.5,-188.5 123.74,-182.93"/>
</g>
<!-- 6 -->
<g id="node7" class="node">
<title>6</title>
<path fill="#8139e5" stroke="black" d="M277.5,-179.5C277.5,-179.5 170.5,-179.5 170.5,-179.5 164.5,-179.5 158.5,-173.5 158.5,-167.5 158.5,-167.5 158.5,-123.5 158.5,-123.5 158.5,-117.5 164.5,-111.5 170.5,-111.5 170.5,-111.5 277.5,-111.5 277.5,-111.5 283.5,-111.5 289.5,-117.5 289.5,-123.5 289.5,-123.5 289.5,-167.5 289.5,-167.5 289.5,-173.5 283.5,-179.5 277.5,-179.5"/>
<text text-anchor="start" x="189" y="-164.3" font-family="Helvetica,sans-Serif" font-size="14.00">gini = 0.0</text>
<text text-anchor="start" x="180" y="-149.3" font-family="Helvetica,sans-Serif" font-size="14.00">samples = 1</text>
<text text-anchor="start" x="166.5" y="-134.3" font-family="Helvetica,sans-Serif" font-size="14.00">value = [0, 0, 1]</text>
<text text-anchor="start" x="166.5" y="-119.3" font-family="Helvetica,sans-Serif" font-size="14.00">class = virginica</text>
</g>
<!-- 4&#45;&gt;6 -->
<g id="edge6" class="edge">
<title>4&#45;&gt;6</title>
<path fill="none" stroke="black" d="M224,-222.91C224,-212.2 224,-200.62 224,-189.78"/>
<polygon fill="black" stroke="black" points="227.5,-189.67 224,-179.67 220.5,-189.67 227.5,-189.67"/>
</g>
<!-- 8 -->
<g id="node9" class="node">
<title>8</title>
<path fill="#8139e5" stroke="black" d="M426.5,-179.5C426.5,-179.5 319.5,-179.5 319.5,-179.5 313.5,-179.5 307.5,-173.5 307.5,-167.5 307.5,-167.5 307.5,-123.5 307.5,-123.5 307.5,-117.5 313.5,-111.5 319.5,-111.5 319.5,-111.5 426.5,-111.5 426.5,-111.5 432.5,-111.5 438.5,-117.5 438.5,-123.5 438.5,-123.5 438.5,-167.5 438.5,-167.5 438.5,-173.5 432.5,-179.5 426.5,-179.5"/>
<text text-anchor="start" x="338" y="-164.3" font-family="Helvetica,sans-Serif" font-size="14.00">gini = 0.0</text>
<text text-anchor="start" x="329" y="-149.3" font-family="Helvetica,sans-Serif" font-size="14.00">samples = 3</text>
<text text-anchor="start" x="315.5" y="-134.3" font-family="Helvetica,sans-Serif" font-size="14.00">value = [0, 0, 3]</text>
<text text-anchor="start" x="315.5" y="-119.3" font-family="Helvetica,sans-Serif" font-size="14.00">class = virginica</text>
</g>
<!-- 7&#45;&gt;8 -->
<g id="edge8" class="edge">
<title>7&#45;&gt;8</title>
<path fill="none" stroke="black" d="M439.61,-222.91C429.61,-211.43 418.72,-198.94 408.69,-187.44"/>
<polygon fill="black" stroke="black" points="411.12,-184.9 401.91,-179.67 405.85,-189.5 411.12,-184.9"/>
</g>
<!-- 9 -->
<g id="node10" class="node">
<title>9</title>
<path fill="#9cf2c0" stroke="black" d="M633,-187C633,-187 469,-187 469,-187 463,-187 457,-181 457,-175 457,-175 457,-116 457,-116 457,-110 463,-104 469,-104 469,-104 633,-104 633,-104 639,-104 645,-110 645,-116 645,-116 645,-175 645,-175 645,-181 639,-187 633,-187"/>
<text text-anchor="start" x="465" y="-171.8" font-family="Helvetica,sans-Serif" font-size="14.00">petal length (cm) ≤ 5.45</text>
<text text-anchor="start" x="507" y="-156.8" font-family="Helvetica,sans-Serif" font-size="14.00">gini = 0.444</text>
<text text-anchor="start" x="507" y="-141.8" font-family="Helvetica,sans-Serif" font-size="14.00">samples = 3</text>
<text text-anchor="start" x="493.5" y="-126.8" font-family="Helvetica,sans-Serif" font-size="14.00">value = [0, 2, 1]</text>
<text text-anchor="start" x="489" y="-111.8" font-family="Helvetica,sans-Serif" font-size="14.00">class = versicolor</text>
</g>
<!-- 7&#45;&gt;9 -->
<g id="edge9" class="edge">
<title>7&#45;&gt;9</title>
<path fill="none" stroke="black" d="M501.37,-222.91C507.09,-214.1 513.19,-204.7 519.1,-195.61"/>
<polygon fill="black" stroke="black" points="522.17,-197.31 524.68,-187.02 516.3,-193.5 522.17,-197.31"/>
</g>
<!-- 10 -->
<g id="node11" class="node">
<title>10</title>
<path fill="#39e581" stroke="black" d="M532,-68C532,-68 416,-68 416,-68 410,-68 404,-62 404,-56 404,-56 404,-12 404,-12 404,-6 410,0 416,0 416,0 532,0 532,0 538,0 544,-6 544,-12 544,-12 544,-56 544,-56 544,-62 538,-68 532,-68"/>
<text text-anchor="start" x="439" y="-52.8" font-family="Helvetica,sans-Serif" font-size="14.00">gini = 0.0</text>
<text text-anchor="start" x="430" y="-37.8" font-family="Helvetica,sans-Serif" font-size="14.00">samples = 2</text>
<text text-anchor="start" x="416.5" y="-22.8" font-family="Helvetica,sans-Serif" font-size="14.00">value = [0, 2, 0]</text>
<text text-anchor="start" x="412" y="-7.8" font-family="Helvetica,sans-Serif" font-size="14.00">class = versicolor</text>
</g>
<!-- 9&#45;&gt;10 -->
<g id="edge10" class="edge">
<title>9&#45;&gt;10</title>
<path fill="none" stroke="black" d="M522.33,-103.73C516.11,-94.88 509.52,-85.51 503.27,-76.63"/>
<polygon fill="black" stroke="black" points="506.03,-74.47 497.42,-68.3 500.31,-78.49 506.03,-74.47"/>
</g>
<!-- 11 -->
<g id="node12" class="node">
<title>11</title>
<path fill="#8139e5" stroke="black" d="M681.5,-68C681.5,-68 574.5,-68 574.5,-68 568.5,-68 562.5,-62 562.5,-56 562.5,-56 562.5,-12 562.5,-12 562.5,-6 568.5,0 574.5,0 574.5,0 681.5,0 681.5,0 687.5,0 693.5,-6 693.5,-12 693.5,-12 693.5,-56 693.5,-56 693.5,-62 687.5,-68 681.5,-68"/>
<text text-anchor="start" x="593" y="-52.8" font-family="Helvetica,sans-Serif" font-size="14.00">gini = 0.0</text>
<text text-anchor="start" x="584" y="-37.8" font-family="Helvetica,sans-Serif" font-size="14.00">samples = 1</text>
<text text-anchor="start" x="570.5" y="-22.8" font-family="Helvetica,sans-Serif" font-size="14.00">value = [0, 0, 1]</text>
<text text-anchor="start" x="570.5" y="-7.8" font-family="Helvetica,sans-Serif" font-size="14.00">class = virginica</text>
</g>
<!-- 9&#45;&gt;11 -->
<g id="edge11" class="edge">
<title>9&#45;&gt;11</title>
<path fill="none" stroke="black" d="M579.67,-103.73C585.89,-94.88 592.48,-85.51 598.73,-76.63"/>
<polygon fill="black" stroke="black" points="601.69,-78.49 604.58,-68.3 595.97,-74.47 601.69,-78.49"/>
</g>
<!-- 13 -->
<g id="node14" class="node">
<title>13</title>
<path fill="#c09cf2" stroke="black" d="M816.5,-306C816.5,-306 649.5,-306 649.5,-306 643.5,-306 637.5,-300 637.5,-294 637.5,-294 637.5,-235 637.5,-235 637.5,-229 643.5,-223 649.5,-223 649.5,-223 816.5,-223 816.5,-223 822.5,-223 828.5,-229 828.5,-235 828.5,-235 828.5,-294 828.5,-294 828.5,-300 822.5,-306 816.5,-306"/>
<text text-anchor="start" x="645.5" y="-290.8" font-family="Helvetica,sans-Serif" font-size="14.00">sepal length (cm) ≤ 5.95</text>
<text text-anchor="start" x="689" y="-275.8" font-family="Helvetica,sans-Serif" font-size="14.00">gini = 0.444</text>
<text text-anchor="start" x="689" y="-260.8" font-family="Helvetica,sans-Serif" font-size="14.00">samples = 3</text>
<text text-anchor="start" x="675.5" y="-245.8" font-family="Helvetica,sans-Serif" font-size="14.00">value = [0, 1, 2]</text>
<text text-anchor="start" x="675.5" y="-230.8" font-family="Helvetica,sans-Serif" font-size="14.00">class = virginica</text>
</g>
<!-- 12&#45;&gt;13 -->
<g id="edge13" class="edge">
<title>12&#45;&gt;13</title>
<path fill="none" stroke="black" d="M733,-341.91C733,-333.65 733,-324.86 733,-316.3"/>
<polygon fill="black" stroke="black" points="736.5,-316.02 733,-306.02 729.5,-316.02 736.5,-316.02"/>
</g>
<!-- 16 -->
<g id="node17" class="node">
<title>16</title>
<path fill="#8139e5" stroke="black" d="M975,-298.5C975,-298.5 859,-298.5 859,-298.5 853,-298.5 847,-292.5 847,-286.5 847,-286.5 847,-242.5 847,-242.5 847,-236.5 853,-230.5 859,-230.5 859,-230.5 975,-230.5 975,-230.5 981,-230.5 987,-236.5 987,-242.5 987,-242.5 987,-286.5 987,-286.5 987,-292.5 981,-298.5 975,-298.5"/>
<text text-anchor="start" x="882" y="-283.3" font-family="Helvetica,sans-Serif" font-size="14.00">gini = 0.0</text>
<text text-anchor="start" x="868.5" y="-268.3" font-family="Helvetica,sans-Serif" font-size="14.00">samples = 43</text>
<text text-anchor="start" x="855" y="-253.3" font-family="Helvetica,sans-Serif" font-size="14.00">value = [0, 0, 43]</text>
<text text-anchor="start" x="859.5" y="-238.3" font-family="Helvetica,sans-Serif" font-size="14.00">class = virginica</text>
</g>
<!-- 12&#45;&gt;16 -->
<g id="edge16" class="edge">
<title>12&#45;&gt;16</title>
<path fill="none" stroke="black" d="M796.84,-341.91C816.1,-329.66 837.19,-316.25 856.24,-304.13"/>
<polygon fill="black" stroke="black" points="858.28,-306.99 864.84,-298.67 854.52,-301.08 858.28,-306.99"/>
</g>
<!-- 14 -->
<g id="node15" class="node">
<title>14</title>
<path fill="#39e581" stroke="black" d="M791,-179.5C791,-179.5 675,-179.5 675,-179.5 669,-179.5 663,-173.5 663,-167.5 663,-167.5 663,-123.5 663,-123.5 663,-117.5 669,-111.5 675,-111.5 675,-111.5 791,-111.5 791,-111.5 797,-111.5 803,-117.5 803,-123.5 803,-123.5 803,-167.5 803,-167.5 803,-173.5 797,-179.5 791,-179.5"/>
<text text-anchor="start" x="698" y="-164.3" font-family="Helvetica,sans-Serif" font-size="14.00">gini = 0.0</text>
<text text-anchor="start" x="689" y="-149.3" font-family="Helvetica,sans-Serif" font-size="14.00">samples = 1</text>
<text text-anchor="start" x="675.5" y="-134.3" font-family="Helvetica,sans-Serif" font-size="14.00">value = [0, 1, 0]</text>
<text text-anchor="start" x="671" y="-119.3" font-family="Helvetica,sans-Serif" font-size="14.00">class = versicolor</text>
</g>
<!-- 13&#45;&gt;14 -->
<g id="edge14" class="edge">
<title>13&#45;&gt;14</title>
<path fill="none" stroke="black" d="M733,-222.91C733,-212.2 733,-200.62 733,-189.78"/>
<polygon fill="black" stroke="black" points="736.5,-189.67 733,-179.67 729.5,-189.67 736.5,-189.67"/>
</g>
<!-- 15 -->
<g id="node16" class="node">
<title>15</title>
<path fill="#8139e5" stroke="black" d="M940.5,-179.5C940.5,-179.5 833.5,-179.5 833.5,-179.5 827.5,-179.5 821.5,-173.5 821.5,-167.5 821.5,-167.5 821.5,-123.5 821.5,-123.5 821.5,-117.5 827.5,-111.5 833.5,-111.5 833.5,-111.5 940.5,-111.5 940.5,-111.5 946.5,-111.5 952.5,-117.5 952.5,-123.5 952.5,-123.5 952.5,-167.5 952.5,-167.5 952.5,-173.5 946.5,-179.5 940.5,-179.5"/>
<text text-anchor="start" x="852" y="-164.3" font-family="Helvetica,sans-Serif" font-size="14.00">gini = 0.0</text>
<text text-anchor="start" x="843" y="-149.3" font-family="Helvetica,sans-Serif" font-size="14.00">samples = 2</text>
<text text-anchor="start" x="829.5" y="-134.3" font-family="Helvetica,sans-Serif" font-size="14.00">value = [0, 0, 2]</text>
<text text-anchor="start" x="829.5" y="-119.3" font-family="Helvetica,sans-Serif" font-size="14.00">class = virginica</text>
</g>
<!-- 13&#45;&gt;15 -->
<g id="edge15" class="edge">
<title>13&#45;&gt;15</title>
<path fill="none" stroke="black" d="M786.43,-222.91C802.26,-210.88 819.56,-197.73 835.28,-185.79"/>
<polygon fill="black" stroke="black" points="837.5,-188.5 843.34,-179.67 833.26,-182.93 837.5,-188.5"/>
</g>
</g>
</svg>
